<svg xmlns="http://www.w3.org/2000/svg" width="500" height="430" fill="none" viewBox="0 0 500 430">
  <path fill="#BC9519" d="M215.806 188.428c-1.278 5.674-2.012 11.55-2.012 17.607 0 2.762.144 5.487.413 8.172 3.838 37.696 33.89 67.753 71.586 71.586.274 2.69.414 5.416.414 8.172 0 6.057-.73 11.938-2.007 17.612-50.757-4.645-91.132-45.021-95.772-95.772-.3-3.222-.497-6.471-.497-9.771 0-5.684.58-11.224 1.438-16.665C197.382 138.747 241.094 100 293.966 100 352.533 100 400 147.472 400 206.034c0 52.878-38.741 96.584-89.363 104.602.859-5.447 1.433-10.981 1.433-16.671 0-3.295-.197-6.543-.492-9.765 35.757-8.059 62.561-40.014 62.561-78.165 0-44.209-35.964-80.172-80.172-80.172-38.153-.001-70.103 26.808-78.161 62.565Z"/>
  <path fill="#F0C419" d="M310.636 310.636C302.618 361.259 258.911 400 206.034 400 147.472 400 100 352.533 100 293.966c0-52.873 38.747-96.585 89.369-104.597-.859 5.441-1.438 10.981-1.438 16.665 0 3.301.197 6.548.497 9.771-35.757 8.059-62.566 40.009-62.566 78.161 0 44.209 35.964 80.172 80.172 80.172 38.152 0 70.106-26.804 78.165-62.561 1.277-5.674 2.007-11.555 2.007-17.611 0-2.757-.14-5.483-.414-8.173-3.832-37.696-33.884-67.748-71.586-71.586a81.919 81.919 0 0 1-.413-8.172c0-6.057.734-11.933 2.012-17.607 50.757 4.645 91.127 45.015 95.772 95.772.295 3.222.491 6.471.491 9.766 0 5.689-.574 11.224-1.432 16.67Z"/>
  <path fill="#1E1E1E" d="M78.12 43.12 70.04 71h-4.08l-6.48-22.44L52.76 71l-4.04.04-7.8-27.92h3.88l6.08 23.64 6.72-23.64h4.08l6.4 23.56 6.12-23.56h3.92Zm19.623 2.96v9.32h10.16v3h-10.16V68h11.36v3h-15V43.08h15v3h-11.36Zm37.548-2.96c3.04 0 5.667.573 7.88 1.72 2.24 1.12 3.947 2.733 5.12 4.84 1.2 2.107 1.8 4.587 1.8 7.44 0 2.853-.6 5.333-1.8 7.44-1.173 2.08-2.88 3.68-5.12 4.8-2.213 1.093-4.84 1.64-7.88 1.64h-8.68V43.12h8.68Zm0 24.88c3.6 0 6.347-.947 8.24-2.84 1.894-1.92 2.84-4.6 2.84-8.04 0-3.467-.96-6.173-2.88-8.12-1.893-1.947-4.626-2.92-8.2-2.92h-5.04V68h5.04Zm40.281-24.88c3.041 0 5.667.573 7.881 1.72 2.24 1.12 3.946 2.733 5.12 4.84 1.2 2.107 1.8 4.587 1.8 7.44 0 2.853-.6 5.333-1.8 7.44-1.174 2.08-2.88 3.68-5.12 4.8-2.214 1.093-4.84 1.64-7.881 1.64h-8.679V43.12h8.679Zm0 24.88c3.601 0 6.347-.947 8.24-2.84 1.894-1.92 2.841-4.6 2.841-8.04 0-3.467-.96-6.173-2.88-8.12-1.894-1.947-4.627-2.92-8.201-2.92h-5.039V68h5.039Zm35.242-24.88V71h-3.64V43.12h3.64ZM250.938 71h-3.64l-14.64-22.2V71h-3.64V43.08h3.64l14.64 22.16V43.08h3.64V71Zm39.325-19.8c-.774-1.627-1.894-2.88-3.36-3.76-1.467-.907-3.174-1.36-5.12-1.36-1.947 0-3.707.453-5.28 1.36-1.547.88-2.774 2.16-3.68 3.84-.88 1.653-1.32 3.573-1.32 5.76s.44 4.107 1.32 5.76c.906 1.653 2.133 2.933 3.68 3.84 1.573.88 3.333 1.32 5.28 1.32 2.72 0 4.96-.813 6.72-2.44 1.76-1.627 2.786-3.827 3.08-6.6h-11.12v-2.96h15v2.8a13.991 13.991 0 0 1-2.16 6.32 13.582 13.582 0 0 1-4.84 4.52c-2 1.093-4.227 1.64-6.68 1.64-2.587 0-4.947-.6-7.08-1.8-2.134-1.227-3.827-2.92-5.08-5.08-1.227-2.16-1.84-4.6-1.84-7.32 0-2.72.613-5.16 1.84-7.32 1.253-2.187 2.946-3.88 5.08-5.08 2.133-1.227 4.493-1.84 7.08-1.84 2.96 0 5.573.733 7.84 2.2 2.293 1.467 3.96 3.533 5 6.2h-4.36ZM356.859 71h-3.64l-14.64-22.2V71h-3.64V43.08h3.64l14.64 22.16V43.08h3.64V71Zm30.845.28c-2.586 0-4.946-.6-7.08-1.8-2.133-1.227-3.826-2.92-5.08-5.08-1.226-2.187-1.84-4.64-1.84-7.36 0-2.72.614-5.16 1.84-7.32 1.254-2.187 2.947-3.88 5.08-5.08 2.134-1.227 4.494-1.84 7.08-1.84 2.614 0 4.987.613 7.12 1.84 2.134 1.2 3.814 2.88 5.04 5.04 1.227 2.16 1.84 4.613 1.84 7.36s-.613 5.2-1.84 7.36c-1.226 2.16-2.906 3.853-5.04 5.08-2.133 1.2-4.506 1.8-7.12 1.8Zm0-3.16c1.947 0 3.694-.453 5.24-1.36 1.574-.907 2.8-2.2 3.68-3.88.907-1.68 1.36-3.627 1.36-5.84 0-2.24-.453-4.187-1.36-5.84-.88-1.68-2.093-2.973-3.64-3.88-1.546-.907-3.306-1.36-5.28-1.36-1.973 0-3.733.453-5.28 1.36-1.546.907-2.773 2.2-3.68 3.88-.88 1.653-1.32 3.6-1.32 5.84 0 2.213.44 4.16 1.32 5.84.907 1.68 2.134 2.973 3.68 3.88 1.574.907 3.334 1.36 5.28 1.36Zm65.846-25L445.47 71h-4.08l-6.48-22.44L428.19 71l-4.04.04-7.8-27.92h3.88l6.08 23.64 6.72-23.64h4.08l6.4 23.56 6.12-23.56h3.92Z"/>
</svg>
